REM DIRINDEX 1\2,1\3,1\4,1\5
REM DIRNAME folder01,folder02,folder03,folder04,folder05
TITLE ""
FILE "131.mp3" MP3
  TRACK 01 AUDIO
    TITLE "0:"
    INDEX 01 00:00:00
  TRACK 02 AUDIO
    TITLE "2:cjc046_3348"
    INDEX 01 00:00:11
  TRACK 03 AUDIO
    TITLE "0:"
    INDEX 01 00:01:26
  TRACK 04 AUDIO
    TITLE "3:cjc046_3349"
    INDEX 01 00:01:44
  TRACK 05 AUDIO
    TITLE "0:"
    INDEX 01 00:02:63
  TRACK 06 AUDIO
    TITLE "4:cjc046_3350"
    INDEX 01 00:03:08
  TRACK 07 AUDIO
    TITLE "0:"
    INDEX 01 00:04:21
  TRACK 08 AUDIO
    TITLE "2:cjc046_3351"
    INDEX 01 00:05:30
  TRACK 09 AUDIO
    TITLE "0:"
    INDEX 01 00:06:33
  TRACK 10 AUDIO
    TITLE "3:cjc046_3352"
    INDEX 01 00:06:55
  TRACK 11 AUDIO
    TITLE "0:"
    INDEX 01 00:08:30
  TRACK 12 AUDIO
    TITLE "4:cjc046_3353"
    INDEX 01 00:08:44
  TRACK 13 AUDIO
    TITLE "0:"
    INDEX 01 00:09:47
  TRACK 14 AUDIO
    TITLE "2:cjc046_3354"
    INDEX 01 00:10:51
  TRACK 15 AUDIO
    TITLE "0:"
    INDEX 01 00:11:66
  TRACK 16 AUDIO
    TITLE "3:cjc046_3355"
    INDEX 01 00:12:09
  TRACK 17 AUDIO
    TITLE "0:"
    INDEX 01 00:13:18
  TRACK 18 AUDIO
    TITLE "4:cjc046_3356"
    INDEX 01 00:13:24
  TRACK 19 AUDIO
    TITLE "0:"
    INDEX 01 00:14:39
  TRACK 20 AUDIO
    TITLE "2:cjc046_3357"
    INDEX 01 00:15:46
  TRACK 21 AUDIO
    TITLE "0:"
    INDEX 01 00:16:65
  TRACK 22 AUDIO
    TITLE "3:cjc046_3358"
    INDEX 01 00:17:14
  TRACK 23 AUDIO
    TITLE "0:"
    INDEX 01 00:18:54
  TRACK 24 AUDIO
    TITLE "4:cjc046_3359"
    INDEX 01 00:18:72
  TRACK 25 AUDIO
    TITLE "0:"
    INDEX 01 00:20:18
  TRACK 26 AUDIO
    TITLE "2:cjc046_3360"
    INDEX 01 00:21:29
  TRACK 27 AUDIO
    TITLE "0:"
    INDEX 01 00:22:32
  TRACK 28 AUDIO
    TITLE "3:cjc046_3361"
    INDEX 01 00:22:50
  TRACK 29 AUDIO
    TITLE "0:"
    INDEX 01 00:23:42
  TRACK 30 AUDIO
    TITLE "4:cjc046_3362"
    INDEX 01 00:23:61
  TRACK 31 AUDIO
    TITLE "0:"
    INDEX 01 00:24:65
  TRACK 32 AUDIO
    TITLE "2:cjc046_3363"
    INDEX 01 00:26:01
  TRACK 33 AUDIO
    TITLE "0:"
    INDEX 01 00:27:20
  TRACK 34 AUDIO
    TITLE "3:cjc046_3364"
    INDEX 01 00:27:34
  TRACK 35 AUDIO
    TITLE "0:"
    INDEX 01 00:28:51
  TRACK 36 AUDIO
    TITLE "4:cjc046_3365"
    INDEX 01 00:28:68
  TRACK 37 AUDIO
    TITLE "0:"
    INDEX 01 00:30:14
  TRACK 38 AUDIO
    TITLE "2:cjc046_3366"
    INDEX 01 00:31:20
  TRACK 39 AUDIO
    TITLE "0:"
    INDEX 01 00:32:23
  TRACK 40 AUDIO
    TITLE "3:cjc046_3367"
    INDEX 01 00:32:45
  TRACK 41 AUDIO
    TITLE "0:"
    INDEX 01 00:33:38
  TRACK 42 AUDIO
    TITLE "4:cjc046_3368"
    INDEX 01 00:33:60
  TRACK 43 AUDIO
    TITLE "0:"
    INDEX 01 00:34:65
  TRACK 44 AUDIO
    TITLE "2:cjc046_3369"
    INDEX 01 00:35:70
  TRACK 45 AUDIO
    TITLE "0:"
    INDEX 01 00:37:12
  TRACK 46 AUDIO
    TITLE "3:cjc046_3370"
    INDEX 01 00:37:26
  TRACK 47 AUDIO
    TITLE "0:"
    INDEX 01 00:38:33
  TRACK 48 AUDIO
    TITLE "4:cjc046_3371"
    INDEX 01 00:38:43
  TRACK 49 AUDIO
    TITLE "0:"
    INDEX 01 00:39:60
  TRACK 50 AUDIO
    TITLE "2:cjc046_3372"
    INDEX 01 00:40:66
  TRACK 51 AUDIO
    TITLE "0:"
    INDEX 01 00:41:65
  TRACK 52 AUDIO
    TITLE "3:cjc046_3373"
    INDEX 01 00:42:10
  TRACK 53 AUDIO
    TITLE "0:"
    INDEX 01 00:43:27
  TRACK 54 AUDIO
    TITLE "4:cjc046_3374"
    INDEX 01 00:43:46
  TRACK 55 AUDIO
    TITLE "0:"
    INDEX 01 00:44:48
  TRACK 56 AUDIO
    TITLE "2:cjc046_3375"
    INDEX 01 00:45:53
  TRACK 57 AUDIO
    TITLE "0:"
    INDEX 01 00:46:68
  TRACK 58 AUDIO
    TITLE "3:cjc046_3376"
    INDEX 01 00:47:07
  TRACK 59 AUDIO
    TITLE "0:"
    INDEX 01 00:48:26
  TRACK 60 AUDIO
    TITLE "4:cjc046_3377"
    INDEX 01 00:48:46
  TRACK 61 AUDIO
    TITLE "0:"
    INDEX 01 00:49:59
  TRACK 62 AUDIO
    TITLE "2:cjc046_3378"
    INDEX 01 00:50:66
  TRACK 63 AUDIO
    TITLE "0:"
    INDEX 01 00:51:69
  TRACK 64 AUDIO
    TITLE "3:cjc046_3379"
    INDEX 01 00:52:16
  TRACK 65 AUDIO
    TITLE "0:"
    INDEX 01 00:54:11
  TRACK 66 AUDIO
    TITLE "4:cjc046_3380"
    INDEX 01 00:54:29
  TRACK 67 AUDIO
    TITLE "0:"
    INDEX 01 00:55:32
  TRACK 68 AUDIO
    TITLE "2:cjc046_3381"
    INDEX 01 00:56:41
  TRACK 69 AUDIO
    TITLE "0:"
    INDEX 01 00:57:54
  TRACK 70 AUDIO
    TITLE "3:cjc046_3382"
    INDEX 01 00:57:74
  TRACK 71 AUDIO
    TITLE "0:"
    INDEX 01 00:59:20
  TRACK 72 AUDIO
    TITLE "4:cjc046_3383"
    INDEX 01 00:59:38
  TRACK 73 AUDIO
    TITLE "0:"
    INDEX 01 01:00:47
  TRACK 74 AUDIO
    TITLE "2:cjc046_3384"
    INDEX 01 01:01:56
  TRACK 75 AUDIO
    TITLE "0:"
    INDEX 01 01:02:57
  TRACK 76 AUDIO
    TITLE "3:cjc046_3385"
    INDEX 01 01:03:06
  TRACK 77 AUDIO
    TITLE "0:"
    INDEX 01 01:04:23
  TRACK 78 AUDIO
    TITLE "4:cjc046_3386"
    INDEX 01 01:04:41
  TRACK 79 AUDIO
    TITLE "0:"
    INDEX 01 01:05:42
  TRACK 80 AUDIO
    TITLE "2:cjc046_3387"
    INDEX 01 01:06:51
  TRACK 81 AUDIO
    TITLE "0:"
    INDEX 01 01:07:51
  TRACK 82 AUDIO
    TITLE "3:cjc046_3388"
    INDEX 01 01:07:70
  TRACK 83 AUDIO
    TITLE "0:"
    INDEX 01 01:09:12
  TRACK 84 AUDIO
    TITLE "4:cjc046_3389"
    INDEX 01 01:09:28
  TRACK 85 AUDIO
    TITLE "0:"
    INDEX 01 01:10:30
